<svg id="Layer_1" data-name="Layer 1" xmlns="http://www.w3.org/2000/svg" viewBox="0 0 489.2 160.16"><defs><style>.cls-1{fill:#d3555b;}.cls-2{fill:#f16566;}.cls-3{fill:#fffdfd;}.cls-4{fill:#fffcfc;}.cls-5{fill:#fffbfb;}.cls-6{fill:#f16667;}.cls-7{fill:#f26767;}</style></defs><title>sample</title><path class="cls-1" d="M523.2,378v6.17c-.1.14-.28.28-.3.43a20.44,20.44,0,0,1-6.77,12.22l-13.76,12.61q-21.5,19.72-43,39.44c-4.45,4.09-8.84,8.24-14.69,10.29-2.12.74-4.3,1.34-6.45,2H43.81c-1-.48-2-.92-3-1.44-3.58-1.88-5.45-5.09-6.77-8.73V311.17c1.25-3,2.67-5.84,5.44-7.8,1.47-1,3.2-1.5,4.73-2.37H437.49c1.07.7,2.36.62,3.54.92,6.77,1.72,12.05,5.72,17.09,10.37,18.24,16.84,36.61,33.54,54.89,50.33,2.44,2.24,5,4.34,6.87,7.18C521.52,372.32,522.3,375.18,523.2,378ZM250.71,314.44q-91.06,0-182.13-.07c-4.73,0-7.82,3-7.8,7.78.15,28.51.07,57,.07,85.52,0,11.14,0,22.27,0,33.41a6.45,6.45,0,0,0,2.14,5c1.93,1.84,4.29,2,6.76,2H430.36c.42,0,.85,0,1.27,0,5.89-.24,11.09-2,15.36-6.33,3-3,6.29-5.84,9.45-8.74l25.4-23.27,9.62-8.83c5.35-4.9,10.76-9.73,16-14.7a6.88,6.88,0,0,0,0-10.21c-1.58-1.58-3.28-3-4.93-4.55q-10-9.17-20.08-18.34c-4.9-4.49-9.76-9-14.66-13.52-6.95-6.37-13.94-12.7-20.86-19.11a20.89,20.89,0,0,0-14.7-6Q341.5,314.46,250.71,314.44Z" transform="translate(-34 -301)"/><path class="cls-2" d="M250.71,314.44q90.79,0,181.58,0a20.89,20.89,0,0,1,14.7,6c6.91,6.41,13.91,12.73,20.86,19.11,4.9,4.5,9.76,9,14.66,13.52q10,9.19,20.08,18.34c1.65,1.51,3.35,3,4.93,4.55a6.88,6.88,0,0,1,0,10.21c-5.27,5-10.69,9.81-16,14.7l-9.62,8.83L456.45,433c-3.16,2.9-6.44,5.69-9.45,8.74-4.27,4.31-9.47,6.09-15.36,6.33-.42,0-.85,0-1.27,0H69.74c-2.46,0-4.83-.17-6.76-2a6.45,6.45,0,0,1-2.14-5c0-11.14,0-22.27,0-33.41,0-28.51.08-57-.07-85.52,0-4.81,3.07-7.79,7.8-7.78Q159.65,314.53,250.71,314.44Zm-19.29,75.47H231q-2.07-7.77-4.14-15.53c-1.53-5.72-3-11.45-4.65-17.13-1-3.63-2.38-4.56-6.15-4.64-1.81,0-3.63,0-5.45,0-4.82.06-6.7,1.94-6.7,6.75q0,22.06,0,44.12a10.77,10.77,0,0,0,.31,3.06,5.2,5.2,0,0,0,10,0,10.43,10.43,0,0,0,.32-3.05q0-17.52,0-35v-1.87a2.79,2.79,0,0,1,.67,1.3q3.15,12.57,6.29,25.13c1,4,2,8,3.12,11.92s3.68,5.71,7.48,5.4c3-.24,5-2.14,6-6.14,1.86-7.19,3.66-14.4,5.48-21.6q2-8,4.06-16.09l.32,0v1.89q0,17.61,0,35.22a11.29,11.29,0,0,0,.21,2.52,5,5,0,0,0,5.34,4.17,5,5,0,0,0,4.94-4.67,18.9,18.9,0,0,0,.13-2.53q0-21.7,0-43.4c0-.6,0-1.21-.07-1.81-.26-3-1.35-4.35-4.33-5s-5.91-.32-8.86-.22a4.93,4.93,0,0,0-4.93,4c-1.59,5.89-3.2,11.77-4.78,17.66Q233.48,382.15,231.43,389.91Zm-118,20.4c6.58,0,10.64-.78,14.32-2.51,9-4.21,12.77-14.91,8.27-23.22-2.4-4.43-6.59-6.4-11-8s-8.85-2.4-13.26-3.66a14.72,14.72,0,0,1-5.06-2.36c-2.82-2.18-3-5.5-.44-8a9.56,9.56,0,0,1,6-2.62c7-.62,9.67,1.08,12.42,6.17a35.72,35.72,0,0,0,1.91,3.07,3.78,3.78,0,0,0,3.1,1.61c3.78.23,6.36-3,5.45-7.11-1.11-5-4.48-8.15-9-10a29.6,29.6,0,0,0-23.46.28c-5.81,2.46-9,7-9,13.45s3.27,10.8,8.95,13.49a51,51,0,0,0,9.78,3.24c3.16.78,6.39,1.35,9.36,2.76,2.61,1.24,4.47,3.08,4.57,6.21s-1.6,5.36-4.23,6.87a15,15,0,0,1-8.6,1.61,10.06,10.06,0,0,1-9.11-5.85c-.72-1.46-1.32-3-2.11-4.41-1.47-2.66-3.78-3.58-6.39-2.65-2.35.84-3.63,3.24-3.24,6a16.52,16.52,0,0,0,5.57,10.11C103,409.2,108.91,410.23,113.46,410.31ZM370.7,380.89c0,4.66,0,9.32,0,14,0,2.84-.09,5.7.12,8.53.29,4,2,5.74,6,5.8,9,.14,17.91.11,26.86.12,2.18,0,4.36,0,6.53-.12a4.2,4.2,0,0,0,4.09-3c1-3.23-1.08-6-4.69-6-8.47,0-16.94-.07-25.41,0-1.67,0-2-.49-2-2,.11-4.11.09-8.23,0-12.34,0-1.35.32-1.74,1.7-1.72,7.08.07,14.16,0,21.24,0a11.16,11.16,0,0,0,3.23-.38,4.09,4.09,0,0,0,2.91-4.47,3.91,3.91,0,0,0-3.3-3.78,14.35,14.35,0,0,0-2.53-.15c-7.2,0-14.4,0-21.6,0-1.25,0-1.67-.33-1.64-1.62.08-3.45.09-6.9,0-10.35,0-1.39.31-1.84,1.78-1.83,7.68.08,15.37,0,23.05,0a12.47,12.47,0,0,0,3.42-.36,4,4,0,0,0,3-4,4.08,4.08,0,0,0-2.88-4.31,9,9,0,0,0-2.87-.35H378.39c-5.71,0-7.6,1.87-7.69,7.59,0,.42,0,.85,0,1.27Q370.7,371.18,370.7,380.89Zm-200.44-29.3c-4.06,0-6.55,1.37-8.08,4.36-.52,1-1,2.06-1.43,3.13q-5.07,12.8-10.1,25.61c-2.32,5.9-4.69,11.78-6.88,17.73-1.26,3.42,0,6.33,3,7.51s5.5.08,7-3.41c1.3-3,2.44-6,3.54-9.11a2,2,0,0,1,2.28-1.65q9.8.12,19.6,0a2,2,0,0,1,2.28,1.66c1.12,3.06,2.35,6.08,3.62,9.08.83,2,2.08,3.55,4.44,3.79a5.55,5.55,0,0,0,6.16-7c-1.24-4.68-3.4-9-5.2-13.51q-6.36-15.89-12.79-31.76C176.28,354.3,174,351.55,170.26,351.59Zm99.92,29.87c0,7.14,0,14.27,0,21.41a14.54,14.54,0,0,0,.34,3.23,5.31,5.31,0,0,0,5.23,4.21,5.45,5.45,0,0,0,5.56-3.8,11.76,11.76,0,0,0,.47-3.94c0-4.48.05-9,0-13.42,0-1.4.34-1.89,1.81-1.86a113.52,113.52,0,0,0,12.87-.23c8.53-.82,16-4.48,17-15,1-9.43-3.52-18.23-15.17-19.17-6.89-.55-13.78-.18-20.67-.26-5.43-.07-7.45,2-7.46,7.43Q270.17,370.76,270.17,381.46Zm52.58-1.06c0,7.32,0,14.64,0,22,0,4.73,1.81,6.77,6.5,6.85,9.19.16,18.39.08,27.59.09a15,15,0,0,0,2.53-.16,4.65,4.65,0,0,0,3-7.5,5.35,5.35,0,0,0-4.51-1.88c-7.26,0-14.52,0-21.78,0-1.44,0-1.8-.39-1.79-1.81.05-13.07,0-26.14,0-39.21a12.61,12.61,0,0,0-.17-2.53,5.42,5.42,0,0,0-5.6-4.68c-2.94,0-4.91,1.62-5.54,4.69a14.8,14.8,0,0,0-.26,2.88C322.75,366.25,322.76,373.33,322.76,380.41Zm127,.7A13.2,13.2,0,0,0,463,394.34a13.26,13.26,0,1,0-13.22-13.23Z" transform="translate(-34 -301)"/><path class="cls-3" d="M231.43,389.91q2.07-7.76,4.14-15.51c1.59-5.89,3.19-11.77,4.78-17.66a4.93,4.93,0,0,1,4.93-4c3-.1,5.93-.42,8.86.22s4.07,2,4.33,5c.05.6.07,1.21.07,1.81q0,21.7,0,43.4a18.9,18.9,0,0,1-.13,2.53,5,5,0,0,1-4.94,4.67,5,5,0,0,1-5.34-4.17,11.29,11.29,0,0,1-.21-2.52q0-17.61,0-35.22V366.5l-.32,0q-2,8-4.06,16.09c-1.82,7.2-3.62,14.41-5.48,21.6-1,4-3,5.89-6,6.14-3.8.31-6.3-1.39-7.48-5.4S222.47,397,221.46,393q-3.17-12.56-6.29-25.13a2.79,2.79,0,0,0-.67-1.3v1.87q0,17.52,0,35a10.43,10.43,0,0,1-.32,3.05,5.2,5.2,0,0,1-10,0,10.77,10.77,0,0,1-.31-3.06q0-22.06,0-44.12c0-4.81,1.88-6.69,6.7-6.75,1.82,0,3.63,0,5.45,0,3.77.08,5.11,1,6.15,4.64,1.63,5.69,3.12,11.42,4.65,17.13q2.08,7.76,4.14,15.53Z" transform="translate(-34 -301)"/><path class="cls-4" d="M113.46,410.31c-4.55-.08-10.44-1.11-15.21-5.46a16.52,16.52,0,0,1-5.57-10.11c-.39-2.79.89-5.18,3.24-6,2.61-.93,4.93,0,6.39,2.65.78,1.42,1.38,3,2.11,4.41a10.06,10.06,0,0,0,9.11,5.85,15,15,0,0,0,8.6-1.61c2.63-1.52,4.32-3.65,4.23-6.87s-2-5-4.57-6.21c-3-1.41-6.2-2-9.36-2.76a51,51,0,0,1-9.78-3.24c-5.68-2.7-9-7-8.95-13.49s3.23-11,9-13.45a29.6,29.6,0,0,1,23.46-.28c4.49,1.84,7.86,5,9,10,.91,4.06-1.67,7.34-5.45,7.11a3.78,3.78,0,0,1-3.1-1.61,35.72,35.72,0,0,1-1.91-3.07c-2.75-5.1-5.38-6.8-12.42-6.17a9.56,9.56,0,0,0-6,2.62c-2.54,2.5-2.38,5.82.44,8a14.72,14.72,0,0,0,5.06,2.36c4.41,1.26,8.93,2.12,13.26,3.66s8.65,3.56,11,8c4.5,8.32.69,19-8.27,23.22C124.09,409.53,120,410.34,113.46,410.31Z" transform="translate(-34 -301)"/><path class="cls-3" d="M370.7,380.89q0-9.71,0-19.42c0-.42,0-.85,0-1.27.09-5.73,2-7.59,7.69-7.59H407.8a9,9,0,0,1,2.87.35,4.08,4.08,0,0,1,2.88,4.31,4,4,0,0,1-3,4,12.47,12.47,0,0,1-3.42.36c-7.69,0-15.37,0-23.05,0-1.47,0-1.82.43-1.78,1.83.1,3.45.09,6.9,0,10.35,0,1.29.39,1.63,1.64,1.62,7.2-.05,14.4,0,21.6,0a14.35,14.35,0,0,1,2.53.15,3.91,3.91,0,0,1,3.3,3.78,4.09,4.09,0,0,1-2.91,4.47,11.16,11.16,0,0,1-3.23.38c-7.08,0-14.16,0-21.24,0-1.38,0-1.73.38-1.7,1.72.09,4.11.1,8.23,0,12.34,0,1.54.28,2,2,2,8.47-.1,16.94-.07,25.41,0,3.61,0,5.74,2.8,4.69,6a4.2,4.2,0,0,1-4.09,3c-2.17.12-4.35.12-6.53.12-9,0-17.91,0-26.86-.12-4-.06-5.72-1.84-6-5.8-.2-2.83-.11-5.68-.12-8.53C370.69,390.21,370.7,385.55,370.7,380.89Z" transform="translate(-34 -301)"/><path class="cls-3" d="M170.26,351.59c3.72,0,6,2.7,7.53,6.43q6.41,15.87,12.79,31.76c1.79,4.48,4,8.83,5.2,13.51a5.55,5.55,0,0,1-6.16,7c-2.36-.24-3.61-1.82-4.44-3.79-1.27-3-2.49-6-3.62-9.08a2,2,0,0,0-2.28-1.66q-9.8.13-19.6,0a2,2,0,0,0-2.28,1.65c-1.1,3.07-2.24,6.13-3.54,9.11-1.52,3.5-4,4.61-7,3.41s-4.31-4.09-3-7.51c2.19-5.95,4.56-11.83,6.88-17.73q5-12.81,10.1-25.61c.42-1.06.91-2.11,1.43-3.13C163.7,353,166.19,351.56,170.26,351.59ZM177.76,387l-8.42-23-8.26,23Z" transform="translate(-34 -301)"/><path class="cls-5" d="M270.17,381.46q0-10.7,0-21.41c0-5.43,2-7.5,7.46-7.43,6.89.09,13.78-.29,20.67.26,11.66.94,16.13,9.74,15.17,19.17-1.07,10.52-8.51,14.18-17,15a113.52,113.52,0,0,1-12.87.23c-1.47,0-1.83.47-1.81,1.86.08,4.47,0,8.95,0,13.42a11.76,11.76,0,0,1-.47,3.94,5.45,5.45,0,0,1-5.56,3.8,5.31,5.31,0,0,1-5.23-4.21,14.54,14.54,0,0,1-.34-3.23C270.16,395.73,270.17,388.6,270.17,381.46ZM281.79,370c0,2.36,0,4.71,0,7.07,0,.65-.12,1.44.9,1.42,4.51-.1,9.08.48,13.51-.83,3.81-1.13,5.71-3.94,5.57-8.08s-2.14-6.68-6.14-7.57c-4.24-.94-8.55-.47-12.82-.58-1,0-1,.61-1,1.33C281.79,365.13,281.79,367.55,281.79,370Z" transform="translate(-34 -301)"/><path class="cls-3" d="M322.76,380.41c0-7.08,0-14.16,0-21.24a14.8,14.8,0,0,1,.26-2.88c.62-3.07,2.59-4.71,5.54-4.69a5.42,5.42,0,0,1,5.6,4.68,12.61,12.61,0,0,1,.17,2.53c0,13.07,0,26.14,0,39.21,0,1.41.35,1.82,1.79,1.81,7.26-.08,14.52,0,21.78,0a5.35,5.35,0,0,1,4.51,1.88,4.65,4.65,0,0,1-3,7.5,15,15,0,0,1-2.53.16c-9.2,0-18.4.07-27.59-.09-4.69-.08-6.47-2.12-6.5-6.85C322.73,395.05,322.76,387.73,322.76,380.41Z" transform="translate(-34 -301)"/><path class="cls-6" d="M177.76,387H161.09l8.26-23Z" transform="translate(-34 -301)"/><path class="cls-7" d="M281.79,370c0-2.42,0-4.83,0-7.25,0-.72,0-1.35,1-1.33,4.28.11,8.58-.36,12.82.58,4,.89,6,3.36,6.14,7.57s-1.76,7-5.57,8.08c-4.43,1.31-9,.74-13.51.83-1,0-.9-.76-.9-1.42C281.78,374.68,281.79,372.32,281.79,370Z" transform="translate(-34 -301)"/></svg>